<?xml version="1.0" encoding="UTF-8"?>
<svg xmlns="http://www.w3.org/2000/svg" viewBox="0 0 800 500" role="img" aria-label="캔들 차트와 보조지표 추세선, 골든크로스 신호 마커, RSI 서브패널이 표시된 분석 대시보드 일러스트" preserveAspectRatio="xMidYMid meet">
  <defs>
    <linearGradient id="hero-bg" x1="0" y1="0" x2="0" y2="1">
      <stop offset="0" stop-color="#1e293b"/>
      <stop offset="1" stop-color="#0f172a"/>
    </linearGradient>
    <linearGradient id="hero-ma" x1="0" y1="0" x2="1" y2="0">
      <stop offset="0" stop-color="#60a5fa" stop-opacity="0.65"/>
      <stop offset="0.5" stop-color="#93c5fd"/>
      <stop offset="1" stop-color="#60a5fa" stop-opacity="0.65"/>
    </linearGradient>
    <linearGradient id="hero-area" x1="0" y1="0" x2="0" y2="1">
      <stop offset="0" stop-color="#3b82f6" stop-opacity="0.28"/>
      <stop offset="1" stop-color="#3b82f6" stop-opacity="0"/>
    </linearGradient>
  </defs>
  <rect x="0" y="0" width="800" height="500" rx="24" fill="url(#hero-bg)"/>
  <rect x="0.5" y="0.5" width="799" height="499" rx="23.5" fill="none" stroke="#334155" stroke-width="1"/>
  <rect x="32" y="32" width="160" height="34" rx="17" fill="#172554" stroke="#1d4ed8"/>
  <circle cx="52" cy="49" r="5" fill="#3b82f6"/>
  <text x="68" y="54" font-family="ui-monospace, SFMono-Regular, monospace" font-size="14" fill="#93c5fd" font-weight="600">AAPL</text>
  <text x="118" y="54" font-family="ui-monospace, SFMono-Regular, monospace" font-size="11" fill="#94a3b8">DAILY · 1Y</text>
  <text x="768" y="52" text-anchor="end" font-family="ui-monospace, SFMono-Regular, monospace" font-size="22" fill="#e2e8f0" font-weight="700">232.41</text>
  <text x="768" y="70" text-anchor="end" font-family="ui-monospace, SFMono-Regular, monospace" font-size="11" fill="#26a69a" font-weight="600">+1.82% (+4.16)</text>
  <line x1="32" y1="180" x2="768" y2="180" stroke="#1e293b" stroke-dasharray="4 4"/>
  <line x1="32" y1="260" x2="768" y2="260" stroke="#1e293b" stroke-dasharray="4 4"/>
  <line x1="32" y1="340" x2="768" y2="340" stroke="#1e293b" stroke-dasharray="4 4"/>
  <path d="M 50 290 Q 130 260 200 245 T 350 205 T 520 180 T 720 158 L 720 380 L 50 380 Z" fill="url(#hero-area)"/>
  <path d="M 50 290 Q 130 260 200 245 T 350 205 T 520 180 T 720 158" fill="none" stroke="url(#hero-ma)" stroke-width="2.5" stroke-linecap="round"/>
  <g stroke-linecap="round">
    <line x1="70" y1="285" x2="70" y2="320" stroke="#3b82f6" stroke-width="1.5"/>
    <rect x="60" y="295" width="20" height="20" fill="#3b82f6"/>
    <line x1="112" y1="270" x2="112" y2="305" stroke="#3b82f6" stroke-width="1.5"/>
    <rect x="102" y="280" width="20" height="20" fill="#3b82f6"/>
    <line x1="154" y1="265" x2="154" y2="300" stroke="#ef5350" stroke-width="1.5"/>
    <rect x="144" y="275" width="20" height="20" fill="#ef5350"/>
    <line x1="196" y1="258" x2="196" y2="290" stroke="#3b82f6" stroke-width="1.5"/>
    <rect x="186" y="268" width="20" height="20" fill="#3b82f6"/>
    <line x1="238" y1="240" x2="238" y2="280" stroke="#3b82f6" stroke-width="1.5"/>
    <rect x="228" y="248" width="20" height="26" fill="#3b82f6"/>
    <line x1="280" y1="230" x2="280" y2="262" stroke="#3b82f6" stroke-width="1.5"/>
    <rect x="270" y="238" width="20" height="20" fill="#3b82f6"/>
    <line x1="322" y1="225" x2="322" y2="258" stroke="#ef5350" stroke-width="1.5"/>
    <rect x="312" y="232" width="20" height="20" fill="#ef5350"/>
    <line x1="364" y1="215" x2="364" y2="255" stroke="#3b82f6" stroke-width="1.5"/>
    <rect x="354" y="218" width="20" height="32" fill="#3b82f6"/>
    <line x1="406" y1="205" x2="406" y2="235" stroke="#3b82f6" stroke-width="1.5"/>
    <rect x="396" y="208" width="20" height="22" fill="#3b82f6"/>
    <line x1="448" y1="195" x2="448" y2="222" stroke="#3b82f6" stroke-width="1.5"/>
    <rect x="438" y="198" width="20" height="20" fill="#3b82f6"/>
    <line x1="490" y1="185" x2="490" y2="212" stroke="#3b82f6" stroke-width="1.5"/>
    <rect x="480" y="188" width="20" height="20" fill="#3b82f6"/>
    <line x1="532" y1="180" x2="532" y2="208" stroke="#ef5350" stroke-width="1.5"/>
    <rect x="522" y="183" width="20" height="20" fill="#ef5350"/>
    <line x1="574" y1="175" x2="574" y2="200" stroke="#3b82f6" stroke-width="1.5"/>
    <rect x="564" y="178" width="20" height="17" fill="#3b82f6"/>
    <line x1="616" y1="170" x2="616" y2="194" stroke="#3b82f6" stroke-width="1.5"/>
    <rect x="606" y="172" width="20" height="18" fill="#3b82f6"/>
    <line x1="658" y1="165" x2="658" y2="188" stroke="#3b82f6" stroke-width="1.5"/>
    <rect x="648" y="167" width="20" height="17" fill="#3b82f6"/>
    <line x1="700" y1="160" x2="700" y2="184" stroke="#3b82f6" stroke-width="1.5"/>
    <rect x="690" y="162" width="20" height="18" fill="#3b82f6"/>
  </g>
  <circle cx="364" cy="215" r="11" fill="none" stroke="#f59e0b" stroke-width="2"/>
  <circle cx="364" cy="215" r="3" fill="#f59e0b"/>
  <g transform="translate(382, 196)">
    <rect x="0" y="0" width="110" height="26" rx="6" fill="#0f172a" stroke="#1d4ed8"/>
    <text x="12" y="17" font-family="ui-monospace, SFMono-Regular, monospace" font-size="11" fill="#f59e0b" font-weight="700">▲</text>
    <text x="28" y="17" font-family="ui-monospace, SFMono-Regular, monospace" font-size="11" fill="#cbd5e1">GoldenCross</text>
  </g>
  <line x1="710" y1="158" x2="768" y2="158" stroke="#3b82f6" stroke-dasharray="3 3" stroke-opacity="0.5"/>
  <rect x="744" y="148" width="32" height="20" rx="3" fill="#1e293b" stroke="#3b82f6"/>
  <text x="760" y="162" text-anchor="middle" font-family="ui-monospace, SFMono-Regular, monospace" font-size="10" fill="#93c5fd" font-weight="600">MA</text>
  <line x1="32" y1="400" x2="768" y2="400" stroke="#1e293b"/>
  <text x="48" y="424" font-family="ui-monospace, SFMono-Regular, monospace" font-size="11" fill="#64748b" font-weight="600">RSI 14</text>
  <text x="100" y="424" font-family="ui-monospace, SFMono-Regular, monospace" font-size="11" fill="#a78bfa" font-weight="600">62.4</text>
  <line x1="120" y1="430" x2="760" y2="430" stroke="#1e293b" stroke-dasharray="2 4"/>
  <line x1="120" y1="465" x2="760" y2="465" stroke="#1e293b" stroke-dasharray="2 4"/>
  <path d="M 120 458 Q 200 450 280 440 T 440 432 T 600 422 T 760 416" fill="none" stroke="#a78bfa" stroke-width="1.8" stroke-linecap="round"/>
</svg>
